<?xml version="1.0" encoding="UTF-8"?>
<svg xmlns="http://www.w3.org/2000/svg" width="1024" height="1024" viewBox="0 0 1024 1024" role="img" aria-labelledby="title desc">
  <title id="title">openHop logo</title>
  <desc id="desc">Vectorised openHop rabbit logo converted from the supplied image.</desc>
  <defs>
    <linearGradient id="openhopBluePurple" x1="185" y1="430" x2="875" y2="690" gradientUnits="userSpaceOnUse">
      <stop offset="0" stop-color="#35b5ff"/>
      <stop offset="0.45" stop-color="#5d73ff"/>
      <stop offset="0.72" stop-color="#8057ff"/>
      <stop offset="1" stop-color="#9e34ff"/>
    </linearGradient>
  </defs>
  <rect width="1024" height="1024" fill="#000000"/>
  <g fill-rule="evenodd" clip-rule="evenodd" shape-rendering="geometricPrecision">
    <path d="M893 657 L882 652 L830 652 L822 655 L815 662 L812 669 L811 741 L813 745 L823 744 L823 724 L826 721 L878 721 L891 717 L897 711 L901 702 L901 670 L898 663 Z M825 670 L830 665 L838 663 L873 663 L882 665 L889 673 L888 702 L879 709 L825 709 L823 707 L823 677 Z M709 662 L705 673 L705 699 L708 709 L717 718 L727 721 L772 721 L783 718 L792 709 L795 701 L795 670 L792 663 L786 656 L776 652 L723 652 L714 656 Z M782 671 L783 698 L781 703 L776 708 L728 709 L722 706 L718 701 L717 677 L719 670 L724 665 L755 663 L774 664 L778 666 Z M576 634 L576 718 L579 721 L586 721 L589 718 L589 685 L591 683 L671 683 L673 685 L673 718 L676 721 L683 721 L686 718 L686 634 L684 632 L678 631 L673 634 L673 668 L668 671 L591 670 L589 668 L589 634 L585 631 L578 632 Z M384 474 L367 474 L355 485 L250 485 L236 497 L236 499 L358 499 L365 495 L384 477 Z M555 479 L546 473 L524 478 L505 488 L455 526 L440 536 L432 539 L431 535 L436 521 L477 485 L486 475 L499 467 L506 460 L499 460 L488 463 L476 469 L445 494 L425 513 L420 523 L416 543 L409 551 L386 558 L350 560 L346 562 L299 607 L299 609 L309 610 L318 607 L355 573 L378 573 L391 571 L412 565 L438 553 L463 537 L522 493 L538 485 L547 483 Z M502 434 L497 429 L490 429 L469 435 L464 439 L456 442 L440 454 L363 524 L305 524 L279 546 L209 546 L197 557 L197 559 L281 560 L287 557 L309 537 L369 536 L458 456 L482 442 L491 440 L495 437 L501 436 Z M438 423 L436 419 L428 422 L405 440 L299 440 L285 452 L285 454 L409 454 L416 450 Z" fill="url(#openhopBluePurple)"/>
    <path d="M468 662 L464 673 L464 718 L466 720 L474 720 L476 718 L476 674 L481 666 L488 663 L531 663 L537 665 L543 673 L543 718 L545 720 L553 720 L555 718 L555 672 L552 663 L544 655 L535 652 L485 652 L474 656 Z M361 661 L357 671 L357 701 L361 711 L366 716 L376 720 L441 719 L441 711 L439 709 L379 709 L374 707 L369 700 L369 693 L371 691 L441 691 L445 689 L447 686 L448 676 L447 667 L444 661 L439 656 L428 652 L378 652 L368 655 Z M369 672 L375 665 L381 663 L425 663 L429 664 L435 669 L436 678 L434 680 L371 680 L369 678 Z M331 656 L320 652 L268 652 L259 655 L252 661 L248 671 L248 743 L250 745 L258 745 L260 742 L260 722 L262 720 L321 720 L330 717 L338 709 L340 703 L340 669 L337 662 Z M260 673 L266 665 L272 663 L320 664 L326 668 L329 674 L328 701 L323 707 L318 709 L262 709 L260 707 Z M142 661 L138 670 L138 701 L140 708 L147 716 L157 720 L211 720 L221 716 L227 710 L230 702 L230 669 L226 661 L221 656 L210 652 L159 652 L148 656 Z M152 669 L156 665 L162 663 L206 663 L212 665 L218 672 L218 700 L216 704 L208 709 L157 708 L152 704 L150 700 L150 673 Z M524 455 L502 457 L490 462 L499 459 L506 459 L506 464 Z M715 375 L720 384 L726 389 L746 390 L742 382 L737 377 L731 375 Z M422 424 L423 425 L428 421 L436 418 L439 424 L433 431 L434 432 L444 424 L463 414 L486 407 L510 403 L553 402 L589 405 L590 407 L573 421 L516 422 L483 429 L485 430 L490 428 L497 428 L502 432 L503 435 L501 437 L495 438 L493 440 L517 435 L576 434 L587 428 L609 408 L637 387 L652 371 L661 359 L661 355 L621 347 L592 337 L568 324 L549 308 L550 306 L578 306 L609 311 L639 320 L662 331 L647 317 L622 303 L608 298 L584 293 L567 270 L565 265 L576 264 L600 269 L617 275 L633 283 L652 296 L673 316 L695 345 L722 351 L746 364 L760 378 L784 411 L783 415 L775 425 L769 429 L756 432 L704 433 L700 436 L676 471 L675 475 L678 477 L700 480 L725 486 L750 496 L774 514 L787 531 L789 537 L784 540 L770 539 L755 525 L742 516 L718 506 L690 501 L651 499 L645 494 L637 481 L628 472 L619 468 L557 468 L537 472 L532 475 L546 472 L556 479 L555 481 L549 483 L559 481 L617 481 L627 489 L638 506 L645 511 L689 514 L718 520 L736 528 L761 549 L768 552 L778 553 L794 551 L800 546 L802 542 L802 534 L795 519 L787 508 L772 494 L756 484 L740 477 L698 466 L698 463 L708 448 L712 445 L760 445 L772 442 L781 437 L791 427 L798 413 L796 406 L770 369 L755 354 L729 339 L703 333 L683 307 L660 285 L638 270 L608 257 L576 250 L542 249 L539 251 L541 256 L566 291 L519 296 L518 298 L544 323 L573 343 L607 357 L637 364 L638 367 L627 378 L615 386 L602 390 L516 389 L487 393 L453 404 L438 412 Z" fill="#ffffff"/>
    <path d="M467 664 L465 670 L465 719 L466 720 L475 719 L475 676 L478 669 L486 663 L533 663 L538 665 L541 668 L544 676 L544 719 L545 720 L554 719 L554 670 L551 662 L545 656 L537 653 L482 653 L473 657 Z M363 659 L358 668 L358 704 L364 714 L371 718 L379 720 L439 720 L441 718 L441 713 L439 710 L381 710 L377 709 L370 703 L368 693 L370 691 L440 691 L443 690 L447 685 L447 669 L444 662 L440 657 L431 653 L375 653 Z M368 675 L370 669 L374 665 L379 663 L427 663 L436 670 L437 678 L434 681 L370 681 L368 679 Z M336 661 L332 657 L323 653 L266 653 L258 656 L252 662 L249 669 L248 743 L249 744 L259 743 L259 722 L261 720 L319 720 L331 716 L338 708 L340 701 L340 671 Z M260 672 L265 665 L270 663 L318 663 L321 664 L328 670 L329 673 L329 700 L322 708 L316 710 L261 710 L259 708 L259 675 Z M140 665 L139 686 L138 687 L139 703 L141 709 L148 716 L160 720 L209 720 L219 717 L226 711 L230 700 L230 673 L227 663 L220 656 L213 653 L156 653 L147 657 Z M150 672 L156 665 L160 663 L209 663 L217 669 L219 674 L218 701 L212 708 L206 710 L163 710 L159 709 L151 703 L149 698 Z M716 375 L719 382 L725 388 L746 390 L743 384 L736 377 L727 375 Z M662 330 L653 322 L637 311 L616 301 L599 296 L574 292 L544 293 L520 296 L519 298 L532 312 L547 325 L567 339 L591 351 L623 361 L638 363 L639 366 L631 375 L621 383 L604 390 L580 391 L579 390 L559 390 L558 389 L522 389 L521 390 L500 391 L461 401 L442 411 L448 408 L454 407 L460 412 L456 416 L457 417 L467 412 L480 408 L515 402 L562 402 L575 404 L590 404 L591 407 L572 422 L512 423 L512 424 L522 425 L528 429 L535 431 L534 433 L530 433 L530 434 L574 434 L578 433 L589 426 L611 406 L634 389 L650 373 L660 360 L661 356 L619 347 L591 337 L566 323 L549 309 L549 307 L554 305 L569 305 L597 308 L632 317 L647 323 L661 331 Z M541 250 L540 251 L541 255 L564 287 L577 284 L564 266 L565 263 L590 266 L618 275 L637 285 L654 297 L676 319 L694 344 L714 348 L728 353 L744 362 L758 375 L775 397 L784 411 L784 414 L780 420 L773 427 L759 432 L705 433 L699 438 L675 474 L681 477 L692 478 L723 485 L740 491 L754 498 L767 507 L778 518 L787 530 L789 537 L786 540 L769 539 L757 527 L743 517 L729 510 L716 506 L695 502 L650 499 L644 493 L635 479 L626 471 L615 468 L562 468 L562 469 L590 469 L597 471 L605 471 L606 474 L608 475 L606 478 L590 479 L590 480 L615 480 L620 482 L626 487 L637 504 L646 511 L692 514 L716 519 L735 527 L749 537 L760 548 L769 552 L788 552 L793 551 L798 548 L802 540 L800 529 L789 511 L774 496 L749 481 L723 472 L707 468 L702 468 L697 465 L704 453 L711 445 L754 445 L767 443 L782 436 L792 425 L797 415 L797 409 L786 391 L767 366 L758 357 L741 345 L722 337 L702 333 L685 310 L672 296 L657 283 L639 271 L615 260 L591 253 L572 250 Z" fill="#ffffff" opacity="0.32"/>
  </g>
</svg>