<?xml version="1.0" encoding="UTF-8" standalone="no"?>
<svg
   width="1024"
   height="820"
   viewBox="100 200 820 480.46863"
   role="img"
   aria-labelledby="title desc"
   version="1.1"
   id="svg6"
   sodipodi:docname="openhop_logo_vector_transparent.svg"
   inkscape:version="1.4.4 (dcaf3e7, 2026-05-05)"
   xmlns:inkscape="http://www.inkscape.org/namespaces/inkscape"
   xmlns:sodipodi="http://sodipodi.sourceforge.net/DTD/sodipodi-0.dtd"
   xmlns="http://www.w3.org/2000/svg"
   xmlns:svg="http://www.w3.org/2000/svg"
   xmlns:rdf="http://www.w3.org/1999/02/22-rdf-syntax-ns#"
   xmlns:cc="http://creativecommons.org/ns#"
   xmlns:dc="http://purl.org/dc/elements/1.1/">
  <sodipodi:namedview
     id="namedview6"
     pagecolor="#ffffff"
     bordercolor="#000000"
     borderopacity="0.25"
     inkscape:showpageshadow="2"
     inkscape:pageopacity="0.0"
     inkscape:pagecheckerboard="0"
     inkscape:deskcolor="#d1d1d1"
     inkscape:zoom="0.29111019"
     inkscape:cx="-22.328315"
     inkscape:cy="357.25304"
     inkscape:window-width="1399"
     inkscape:window-height="729"
     inkscape:window-x="0"
     inkscape:window-y="30"
     inkscape:window-maximized="0"
     inkscape:current-layer="svg6" />
  <title
     id="title">openHop logo</title>
  <desc
     id="desc">Vectorised openHop rabbit logo converted from the supplied image.</desc>
  <defs
     id="defs4">
    <linearGradient
       id="openhopBluePurple"
       x1="185"
       y1="430"
       x2="875"
       y2="690"
       gradientUnits="userSpaceOnUse">
      <stop
         offset="0"
         stop-color="#35b5ff"
         id="stop1" />
      <stop
         offset="0.45"
         stop-color="#5d73ff"
         id="stop2" />
      <stop
         offset="0.72"
         stop-color="#8057ff"
         id="stop3" />
      <stop
         offset="1"
         stop-color="#9e34ff"
         id="stop4" />
    </linearGradient>
  </defs>
  <g
     fill-rule="evenodd"
     clip-rule="evenodd"
     shape-rendering="geometricPrecision"
     id="g6">
    <path
       d="m 893,657 -11,-5 h -52 l -8,3 -7,7 -3,7 -1,72 2,4 10,-1 v -20 l 3,-3 h 52 l 13,-4 6,-6 4,-9 v -32 l -3,-7 z m -68,13 5,-5 8,-2 h 35 l 9,2 7,8 -1,29 -9,7 h -54 l -2,-2 v -30 z m -116,-8 -4,11 v 26 l 3,10 9,9 10,3 h 45 l 11,-3 9,-9 3,-8 v -31 l -3,-7 -6,-7 -10,-4 h -53 l -9,4 z m 73,9 1,27 -2,5 -5,5 -48,1 -6,-3 -4,-5 -1,-24 2,-7 5,-5 31,-2 19,1 4,2 z M 576,634 v 84 l 3,3 h 7 l 3,-3 v -33 l 2,-2 h 80 l 2,2 v 33 l 3,3 h 7 l 3,-3 v -84 l -2,-2 -6,-1 -5,3 v 34 l -5,3 -77,-1 -2,-2 v -34 l -4,-3 -7,1 z M 384,474 h -17 l -12,11 H 250 l -14,12 v 2 h 122 l 7,-4 19,-18 z m 171,5 -9,-6 -22,5 -19,10 -50,38 -15,10 -8,3 -1,-4 5,-14 41,-36 9,-10 13,-8 7,-7 h -7 l -11,3 -12,6 -31,25 -20,19 -5,10 -4,20 -7,8 -23,7 -36,2 -4,2 -47,45 v 2 l 10,1 9,-3 37,-34 h 23 l 13,-2 21,-6 26,-12 25,-16 59,-44 16,-8 9,-2 z m -53,-45 -5,-5 h -7 l -21,6 -5,4 -8,3 -16,12 -77,70 h -58 l -26,22 h -70 l -12,11 v 2 l 84,1 6,-3 22,-20 60,-1 89,-80 24,-14 9,-2 4,-3 6,-1 z m -64,-11 -2,-4 -8,3 -23,18 H 299 l -14,12 v 2 h 124 l 7,-4 z"
       fill="url(#openhopBluePurple)"
       id="path4"
       style="fill:url(#openhopBluePurple)" />
    <path
       d="m 468,662 -4,11 v 45 l 2,2 h 8 l 2,-2 v -44 l 5,-8 7,-3 h 43 l 6,2 6,8 v 45 l 2,2 h 8 l 2,-2 v -46 l -3,-9 -8,-8 -9,-3 h -50 l -11,4 z m -107,-1 -4,10 v 30 l 4,10 5,5 10,4 65,-1 v -8 l -2,-2 h -60 l -5,-2 -5,-7 v -7 l 2,-2 h 70 l 4,-2 2,-3 1,-10 -1,-9 -3,-6 -5,-5 -11,-4 h -50 l -10,3 z m 8,11 6,-7 6,-2 h 44 l 4,1 6,5 1,9 -2,2 h -63 l -2,-2 z m -38,-16 -11,-4 h -52 l -9,3 -7,6 -4,10 v 72 l 2,2 h 8 l 2,-3 v -20 l 2,-2 h 59 l 9,-3 8,-8 2,-6 v -34 l -3,-7 z m -71,17 6,-8 6,-2 48,1 6,4 3,6 -1,27 -5,6 -5,2 h -56 l -2,-2 z m -118,-12 -4,9 v 31 l 2,7 7,8 10,4 h 54 l 10,-4 6,-6 3,-8 v -33 l -4,-8 -5,-5 -11,-4 h -51 l -11,4 z m 10,8 4,-4 6,-2 h 44 l 6,2 6,7 v 28 l -2,4 -8,5 -51,-1 -5,-4 -2,-4 v -27 z m 372,-214 -22,2 -12,5 9,-3 h 7 v 5 z m 191,-80 5,9 6,5 20,1 -4,-8 -5,-5 -6,-2 z m -293,49 1,1 5,-4 8,-3 3,6 -6,7 1,1 10,-8 19,-10 23,-7 24,-4 43,-1 36,3 1,2 -17,14 -57,1 -33,7 2,1 5,-2 h 7 l 5,4 1,3 -2,2 -6,1 -2,2 24,-5 59,-1 11,-6 22,-20 28,-21 15,-16 9,-12 v -4 l -40,-8 -29,-10 -24,-13 -19,-16 1,-2 h 28 l 31,5 30,9 23,11 -15,-14 -25,-14 -14,-5 -24,-5 -17,-23 -2,-5 11,-1 24,5 17,6 16,8 19,13 21,20 22,29 27,6 24,13 14,14 24,33 -1,4 -8,10 -6,4 -13,3 -52,1 -4,3 -24,35 -1,4 3,2 22,3 25,6 25,10 24,18 13,17 2,6 -5,3 -14,-1 -15,-14 -13,-9 -24,-10 -28,-5 -39,-2 -6,-5 -8,-13 -9,-9 -9,-4 h -62 l -20,4 -5,3 14,-3 10,7 -1,2 -6,2 10,-2 h 58 l 10,8 11,17 7,5 44,3 29,6 18,8 25,21 7,3 10,1 16,-2 6,-5 2,-4 v -8 l -7,-15 -8,-11 -15,-14 -16,-10 -16,-7 -42,-11 v -3 l 10,-15 4,-3 h 48 l 12,-3 9,-5 10,-10 7,-14 -2,-7 -26,-37 -15,-15 -26,-15 -26,-6 -20,-26 -23,-22 -22,-15 -30,-13 -32,-7 -34,-1 -3,2 2,5 25,35 -47,5 -1,2 26,25 29,20 34,14 30,7 1,3 -11,11 -12,8 -13,4 -86,-1 -29,4 -34,11 -15,8 z"
       fill="#ffffff"
       id="path5" />
    <path
       d="m 467,664 -2,6 v 49 l 1,1 9,-1 v -43 l 3,-7 8,-6 h 47 l 5,2 3,3 3,8 v 43 l 1,1 9,-1 v -49 l -3,-8 -6,-6 -8,-3 h -55 l -9,4 z m -104,-5 -5,9 v 36 l 6,10 7,4 8,2 h 60 l 2,-2 v -5 l -2,-3 h -58 l -4,-1 -7,-6 -2,-10 2,-2 h 70 l 3,-1 4,-5 v -16 l -3,-7 -4,-5 -9,-4 h -56 z m 5,16 2,-6 4,-4 5,-2 h 48 l 9,7 1,8 -3,3 h -64 l -2,-2 z m -32,-14 -4,-4 -9,-4 h -57 l -8,3 -6,6 -3,7 -1,74 1,1 10,-1 v -21 l 2,-2 h 58 l 12,-4 7,-8 2,-7 v -30 z m -76,11 5,-7 5,-2 h 48 l 3,1 7,6 1,3 v 27 l -7,8 -6,2 h -55 l -2,-2 v -33 z m -120,-7 -1,21 -1,1 1,16 2,6 7,7 12,4 h 49 l 10,-3 7,-6 4,-11 v -27 l -3,-10 -7,-7 -7,-3 h -57 l -9,4 z m 10,7 6,-7 4,-2 h 49 l 8,6 2,5 -1,27 -6,7 -6,2 h -43 l -4,-1 -8,-6 -2,-5 z m 566,-297 3,7 6,6 21,2 -3,-6 -7,-7 -9,-2 z m -54,-45 -9,-8 -16,-11 -21,-10 -17,-5 -25,-4 -30,1 -24,3 -1,2 13,14 15,13 20,14 24,12 32,10 15,2 1,3 -8,9 -10,8 -17,7 -24,1 -1,-1 h -20 l -1,-1 h -36 l -1,1 -21,1 -39,10 -19,10 6,-3 6,-1 6,5 -4,4 1,1 10,-5 13,-4 35,-6 h 47 l 13,2 h 15 l 1,3 -19,15 -60,1 v 1 l 10,1 6,4 7,2 -1,2 h -4 v 1 h 44 l 4,-1 11,-7 22,-20 23,-17 16,-16 10,-13 1,-4 -42,-9 -28,-10 -25,-14 -17,-14 v -2 l 5,-2 h 15 l 28,3 35,9 15,6 14,8 z m -121,-80 -1,1 1,4 23,32 13,-3 -13,-18 1,-3 25,3 28,9 19,10 17,12 22,22 18,25 20,4 14,5 16,9 14,13 17,22 9,14 v 3 l -4,6 -7,7 -14,5 -54,1 -6,5 -24,36 6,3 11,1 31,7 17,6 14,7 13,9 11,11 9,12 2,7 -3,3 -17,-1 -12,-12 -14,-10 -14,-7 -13,-4 -21,-4 -45,-3 -6,-6 -9,-14 -9,-8 -11,-3 h -53 v 1 h 28 l 7,2 h 8 l 1,3 2,1 -2,3 -16,1 v 1 h 25 l 5,2 6,5 11,17 9,7 46,3 24,5 19,8 14,10 11,11 9,4 h 19 l 5,-1 5,-3 4,-8 -2,-11 -11,-18 -15,-15 -25,-15 -26,-9 -16,-4 h -5 l -5,-3 7,-12 7,-8 h 43 l 13,-2 15,-7 10,-11 5,-10 v -6 l -11,-18 -19,-25 -9,-9 -17,-12 -19,-8 -20,-4 -17,-23 -13,-14 -15,-13 -18,-12 -24,-11 -24,-7 -19,-3 z"
       fill="#ffffff"
       opacity="0.32"
       id="path6" />
  </g>
  <metadata
     id="metadata6">
    <rdf:RDF>
      <cc:Work
         rdf:about="">
        <dc:title>openHop logo</dc:title>
      </cc:Work>
    </rdf:RDF>
  </metadata>
</svg>
